<?xml version="1.0" standalone="no"?>
<!DOCTYPE svg PUBLIC "-//W3C//DTD SVG 20010904//EN"
 "http://www.w3.org/TR/2001/REC-SVG-20010904/DTD/svg10.dtd">
<svg version="1.0" xmlns="http://www.w3.org/2000/svg"
 width="300.000000pt" height="300.000000pt" viewBox="0 0 300.000000 300.000000"
 preserveAspectRatio="xMidYMid meet">
<metadata>
Created by potrace 1.10, written by Peter Selinger 2001-2011
</metadata>
<g transform="translate(0.000000,300.000000) scale(0.100000,-0.100000)"
fill="#000000" stroke="none">
<path d="M159 2986 c-77 -27 -143 -105 -154 -179 -3 -23 -5 -627 -3 -1342 3
-1453 -3 -1324 74 -1399 73 -70 -15 -67 1445 -64 1459 3 1337 -3 1408 69 72
71 66 -54 66 1429 0 1483 6 1358 -66 1429 -71 72 52 66 -1414 68 -1068 2
-1327 0 -1356 -11z m1340 -1186 l276 -484 3 487 2 487 190 0 190 0 0 -790 0
-790 -189 0 -190 0 -278 488 -278 487 -3 -487 -2 -488 -190 0 -190 0 0 790 0
790 192 -2 192 -3 275 -485z"/>
</g>
</svg>
