<?xml version="1.0" standalone="no"?>
<!DOCTYPE svg PUBLIC "-//W3C//DTD SVG 20010904//EN"
 "http://www.w3.org/TR/2001/REC-SVG-20010904/DTD/svg10.dtd">
<svg version="1.0" xmlns="http://www.w3.org/2000/svg"
 width="900.000000pt" height="900.000000pt" viewBox="0 0 900.000000 900.000000"
 preserveAspectRatio="xMidYMid meet">
<metadata>
Created by potrace 1.10, written by Peter Selinger 2001-2011
</metadata>
<g transform="translate(0.000000,900.000000) scale(0.100000,-0.100000)"
fill="#ffffff" stroke="none">
<path d="M560 8986 c0 -9 -16 -17 -42 -21 -62 -11 -173 -66 -253 -127 -120
-91 -226 -256 -254 -393 -16 -80 -11 -7878 5 -7940 18 -67 70 -166 126 -240
85 -110 206 -195 348 -242 53 -17 207 -18 3995 -18 2275 0 3957 4 3980 9 121
27 289 140 373 251 54 71 122 201 122 233 0 33 12 62 26 62 12 0 14 591 14
3930 0 3378 -2 3930 -14 3930 -9 0 -17 16 -21 43 -20 113 -136 289 -250 375
-80 61 -191 116 -252 127 -27 4 -43 12 -43 21 0 12 -552 14 -3930 14 -3378 0
-3930 -2 -3930 -14z m3102 -2143 c10 -9 18 -20 18 -24 0 -5 20 -43 45 -85 25
-41 45 -77 45 -80 0 -2 20 -38 45 -80 25 -41 45 -77 45 -80 0 -2 27 -49 60
-105 33 -55 60 -103 60 -105 0 -2 19 -36 43 -76 24 -40 46 -80 50 -88 4 -8 11
-22 17 -30 16 -25 100 -171 100 -175 0 -2 19 -36 43 -77 24 -40 46 -80 50 -88
4 -8 11 -22 17 -30 18 -28 100 -171 100 -175 0 -3 18 -35 41 -71 22 -37 45
-77 50 -88 5 -12 13 -28 19 -36 19 -28 100 -171 100 -175 0 -3 18 -35 41 -71
22 -37 45 -77 50 -88 6 -12 15 -30 22 -41 7 -11 30 -51 52 -90 22 -38 45 -79
52 -90 7 -11 16 -27 20 -35 4 -8 26 -48 50 -88 24 -40 43 -74 43 -76 0 -3 27
-50 60 -106 33 -56 60 -103 60 -105 0 -2 19 -36 43 -77 24 -40 47 -80 51 -88
4 -8 12 -24 19 -35 7 -11 30 -52 52 -90 22 -39 45 -79 52 -90 7 -11 17 -31 23
-44 7 -16 14 -21 20 -15 6 6 11 551 12 1459 l3 1450 565 0 565 0 0 -2365 0
-2365 -559 -3 c-392 -1 -563 1 -572 9 -12 10 -30 39 -102 169 -14 25 -45 78
-69 118 -24 41 -43 75 -43 77 0 2 -27 49 -60 105 -33 56 -60 103 -60 105 0 2
-20 38 -45 79 -25 42 -45 79 -45 81 0 3 -18 35 -41 71 -22 37 -45 77 -50 88
-5 12 -13 28 -19 36 -25 40 -93 155 -101 174 -5 12 -13 28 -19 36 -14 22 -95
162 -103 180 -4 8 -21 38 -38 65 -16 28 -37 64 -45 80 -8 17 -23 44 -34 60
-19 30 -25 41 -74 130 -15 28 -36 64 -47 80 -10 17 -22 37 -26 45 -7 13 -46
82 -129 229 -11 20 -35 63 -54 96 -18 33 -53 93 -77 133 -24 41 -43 75 -43 77
0 2 -27 49 -60 105 -33 56 -60 103 -60 105 0 2 -19 36 -43 77 -46 78 -86 148
-121 213 -37 69 -59 96 -67 88 -5 -5 -10 -661 -11 -1458 l-3 -1450 -565 0
-565 0 -3 2355 c-1 1295 0 2361 3 2368 3 9 126 12 566 12 509 0 564 -2 581
-17z"/>
</g>
</svg>
